<?xml version="1.0" encoding="UTF-8" standalone="no"?>
<!-- Created with Inkscape (http://www.inkscape.org/) -->

<svg
   width="91.141083mm"
   height="16.263mm"
   viewBox="0 0 91.141085 16.262999"
   version="1.1"
   id="svg1"
   xml:space="preserve"
   xmlns="http://www.w3.org/2000/svg"
   xmlns:svg="http://www.w3.org/2000/svg"
   xmlns:rdf="http://www.w3.org/1999/02/22-rdf-syntax-ns#"
   xmlns:cc="http://creativecommons.org/ns#"
   xmlns:dc="http://purl.org/dc/elements/1.1/"><title
     id="title1">BusyBoxLogo</title><defs
     id="defs1" /><metadata
     id="metadata1"><rdf:RDF><cc:Work
         rdf:about=""><dc:title>BusyBoxLogo</dc:title></cc:Work></rdf:RDF></metadata><g
     id="g2"
     transform="matrix(1.6829474,0,0,1.6829474,-0.89056071,-0.71507395)"><g
       id="layer1"
       transform="matrix(0.53479752,0,0,0.53479752,-36.31027,-49.563189)"><path
         style="fill:#e26131"
         d="m 87.313459,109.32731 c -1.323042,-0.27791 -2.403887,-1.10651 -3.11099,-2.38494 -0.599722,-1.0843 -0.611533,-1.17048 -0.716773,-5.22996 -0.107003,-4.127507 -0.107003,-4.127507 -0.804857,-4.332817 -0.613609,-0.18054 -0.690267,-0.28275 -0.635,-0.84667 0.06285,-0.64135 0.06285,-0.64135 2.444104,-0.7012 2.38125,-0.0599 2.38125,-0.0599 2.38125,0.6711 0,0.64011 -0.07894,0.74829 -0.635199,0.87046 -0.85198,0.18713 -0.913248,0.52749 -0.811889,4.510267 0.09611,3.77631 0.372591,4.67193 1.677687,5.43449 0.976065,0.57032 2.797249,0.56749 3.792781,-0.006 1.305882,-0.75212 1.551562,-1.60147 1.653472,-5.7163 0.0957,-3.865157 -0.0136,-4.328447 -1.02104,-4.328447 -0.44344,0 -0.713198,-0.60603 -0.507896,-1.14104 0.117706,-0.30674 0.450446,-0.34605 2.491886,-0.2944 2.35603,0.0596 2.35603,0.0596 2.4222,0.63332 0.0555,0.48097 -0.0525,0.62327 -0.66778,0.88037 -0.73395,0.30666 -0.73395,0.30666 -0.81513,4.294617 -0.0882,4.33449 -0.25325,5.0755 -1.39907,6.28277 -1.23462,1.30084 -3.541889,1.86552 -5.737756,1.40427 z m 13.633561,0.09 c -2.989845,-0.39082 -3.280825,-0.61881 -3.280825,-2.57049 0,-1.50575 0.33663,-2.08015 1.10594,-1.88707 0.57043,0.14317 0.79134,0.63492 0.79617,1.77233 0.004,0.91979 0.455055,1.1187 2.537405,1.1187 2.03609,0 3.18236,-0.46419 3.59273,-1.45491 0.54532,-1.31653 -0.1938,-2.06658 -2.94873,-2.99235 -3.777185,-1.26929 -4.687825,-2.01799 -4.824145,-3.966277 -0.21857,-3.12396 3.195945,-4.53277 8.261555,-3.40867 1.1744,0.26061 1.27024,0.46594 1.17412,2.51541 -0.0626,1.33537 -0.0794,1.37103 -0.67625,1.43916 -0.73354,0.0837 -0.96786,-0.22279 -0.97223,-1.27183 -0.005,-1.2874 -0.39596,-1.49383 -2.66844,-1.41021 -2.30448,0.0848 -3.109255,0.4931 -3.222495,1.63491 -0.11263,1.135707 0.904475,1.918097 3.758075,2.890777 1.82423,0.62182 2.61539,1.01002 3.20876,1.57448 1.77316,1.68677 1.11859,4.62507 -1.24058,5.56881 -0.8251,0.33007 -3.50477,0.59054 -4.60106,0.44723 z m -31.980321,-0.37467 c -0.213774,-0.55708 0.0065,-1.08367 0.481702,-1.15165 0.87977,-0.12586 0.923466,-0.40224 0.863917,-5.46427 -0.05696,-4.841777 -0.05696,-4.841777 -0.754812,-5.047087 -0.613609,-0.18054 -0.690267,-0.28275 -0.635,-0.84667 0.06285,-0.64135 0.06285,-0.64135 4.084521,-0.64135 3.602886,0 4.108408,0.0441 4.854673,0.42333 1.778883,0.90403 2.347282,3.02435 1.308822,4.882357 -0.697993,1.24884 -0.698014,1.24859 0.160422,2.0023 0.948397,0.83271 1.266795,1.66342 1.140667,2.97606 -0.123489,1.28517 -0.641935,2.05777 -1.763244,2.62762 -1.131176,0.57486 -9.533699,0.78132 -9.741668,0.23936 z m 8.964502,-1.75764 c 1.110799,-0.82933 1.077017,-2.62724 -0.06341,-3.37448 -0.724631,-0.47479 -4.79163,-0.70179 -5.282012,-0.29481 -0.412135,0.34204 -0.456717,3.58496 -0.05501,4.00126 0.451411,0.46781 4.677123,0.20805 5.400424,-0.33197 z m -1.311425,-5.67077 c 1.515706,-0.6333 1.733549,-3.077897 0.338562,-3.799267 -0.803057,-0.41528 -3.382835,-0.64113 -4.110061,-0.35982 -0.577492,0.22338 -0.582084,0.24078 -0.582084,2.20596 0,1.089427 0.0635,2.044287 0.141111,2.121897 0.272238,0.27224 3.462941,0.1444 4.212472,-0.16877 z m 36.156034,7.41308 c -0.26993,-0.70343 0.0117,-1.06947 0.87297,-1.13441 1.07629,-0.0812 1.37407,-0.48432 1.37407,-1.86025 0,-1.26231 -0.32606,-1.95287 -2.78944,-5.9077 -1.52361,-2.446067 -1.61675,-2.548487 -2.51842,-2.769557 -0.8407,-0.20612 -0.9363,-0.29257 -0.9363,-0.84667 0,-0.61711 0,-0.61711 2.75166,-0.61711 2.75167,0 2.75167,0 2.75167,0.62708 0,0.52589 -0.111,0.65891 -0.68792,0.82437 -0.37835,0.10851 -0.68791,0.30499 -0.68791,0.43663 0,0.47337 2.66546,4.673587 2.96586,4.673587 0.34348,0 2.92448,-4.027167 2.94665,-4.597697 0.009,-0.23879 -0.22292,-0.4258 -0.67376,-0.54262 -0.57946,-0.15016 -0.68792,-0.27625 -0.68792,-0.7998 0,-0.62155 0,-0.62155 2.75167,-0.62155 2.75166,0 2.75166,0 2.75166,0.63405 0,0.5708 -0.0861,0.65221 -0.86257,0.81602 -0.50829,0.10723 -0.98127,0.36843 -1.15158,0.63595 -3.79938,5.968257 -4.01835,6.407907 -4.01835,8.068137 0,1.72405 -0.0337,1.68189 1.48167,1.85159 0.42713,0.0478 0.54196,0.1919 0.5955,0.74717 0.0663,0.68792 0.0663,0.68792 -3.0229,0.68792 -2.49508,0 -3.11174,-0.0587 -3.20631,-0.30514 z"
         id="path5" /></g><g
       id="g1"
       transform="matrix(0.53479752,0,0,0.53479752,-8.9233143,-59.800393)"><path
         style="fill:#e26131"
         d="m 73.640354,130.23546 c -0.06383,-0.26247 -0.08956,-4.33483 -0.05719,-9.04971 l 0.05886,-8.5725 h 22.648328 22.648338 v 8.99583 8.99584 l -22.591148,0.0539 c -22.591139,0.0539 -22.591139,0.0539 -22.707191,-0.42333 z m 24.613211,-2.05961 c 1.66036,-0.57304 3.282335,-2.27473 3.771275,-3.95663 0.5219,-1.79529 0.33804,-4.70859 -0.38515,-6.10264 -1.38989,-2.67919 -4.383875,-3.98134 -7.585885,-3.29925 -4.002434,0.85259 -6.018283,5.20468 -4.504662,9.72527 1.107764,3.30846 4.972032,4.92142 8.704422,3.63325 z m -4.12425,-2.94835 c -2.1689,-1.36259 -2.07042,-6.13629 0.15021,-7.28121 1.36864,-0.70566 3.04495,-0.22813 4.08384,1.16334 0.50271,0.67333 0.71365,2.89444 0.38886,4.09438 -0.54108,1.999 -2.96977,3.06206 -4.62291,2.02349 z m -8.190328,2.64854 c 1.39679,-0.6504 1.99054,-1.57268 1.99054,-3.09196 0,-1.19522 -0.545406,-2.36387 -1.288919,-2.76179 -0.526849,-0.28196 -0.511228,-0.70921 0.05388,-1.47355 0.612888,-0.82898 0.770165,-2.65336 0.306104,-3.55076 -0.927731,-1.79403 -2.350271,-2.19938 -7.431896,-2.11766 -3.81,0.0613 -3.81,0.0613 -3.81,1.32836 0,1.09923 0.05609,1.27774 0.423334,1.34741 0.688313,0.13056 0.7342,0.39187 0.737592,4.20019 0.0032,3.6397 0.0032,3.6397 -0.578842,3.91742 -0.48326,0.23056 -0.593335,0.43428 -0.648354,1.19993 -0.113895,1.58497 -0.34895,1.50902 4.663377,1.50672 4.29405,-0.002 4.554967,-0.0255 5.583187,-0.50431 z m -5.47071,-2.36749 c -0.08731,-0.088 -0.15875,-0.71383 -0.15875,-1.39071 0,-1.451 0.22697,-1.5846 2.362854,-1.39093 1.440294,0.1306 2.082146,0.56665 2.082146,1.41452 0,1.11188 -0.429922,1.37652 -2.364185,1.45531 -0.969823,0.0395 -1.834753,-1.8e-4 -1.922065,-0.0882 z m -0.07158,-5.24761 c -0.06117,-0.1594 -0.08199,-0.80234 -0.04627,-1.42875 0.06494,-1.13894 0.06494,-1.13894 0.902291,-1.20723 2.398664,-0.19564 3.680148,1.23555 2.322211,2.59349 -0.439578,0.43958 -3.01265,0.47397 -3.178228,0.0425 z m 28.657223,6.796 c 0.0494,-0.94735 -0.01,-1.24776 -0.26458,-1.34556 -0.50038,-0.19202 -0.39848,-0.56528 0.40242,-1.47411 0.73056,-0.82902 0.73056,-0.82902 1.26344,-0.19402 0.74393,0.88649 0.85671,1.33889 0.44673,1.79191 -0.24776,0.27377 -0.3301,0.68411 -0.28366,1.41358 0.0654,1.02784 0.0654,1.02784 3.13459,1.02784 3.06917,0 3.06917,0 3.06917,-1.27 0,-1.27 0,-1.27 -0.78143,-1.33496 -0.7112,-0.0591 -0.9062,-0.23252 -2.16959,-1.92933 -0.76348,-1.0254 -1.38815,-2.03339 -1.38815,-2.23996 0,-0.2951 1.43075,-2.29182 2.56244,-3.57607 0.0922,-0.10467 0.52974,-0.24916 0.97222,-0.32109 0.80451,-0.13077 0.80451,-0.13077 0.80451,-1.39718 0,-1.26641 0,-1.26641 -3.06917,-1.26641 -3.06916,0 -3.06916,0 -3.13272,1.21965 -0.0494,0.94735 0.01,1.24775 0.26459,1.34556 0.47517,0.18234 0.40414,0.68185 -0.2118,1.4894 -0.69196,0.9072 -0.96899,0.89092 -1.65378,-0.0972 -0.64177,-0.92607 -0.68958,-1.21574 -0.22981,-1.39217 0.25488,-0.0978 0.31395,-0.39821 0.26458,-1.34556 -0.0636,-1.21965 -0.0636,-1.21965 -3.13272,-1.21965 -3.06917,0 -3.06917,0 -3.06917,1.26641 0,1.26641 0,1.26641 0.80451,1.39718 0.44249,0.0719 0.88594,0.21642 0.98545,0.32109 0.66453,0.69902 2.7604,3.40056 2.76062,3.55839 1.4e-4,0.10618 -0.66829,1.08249 -1.48539,2.16958 -1.25101,1.66435 -1.57863,1.97652 -2.07434,1.97652 -0.32377,0 -0.70298,0.1143 -0.84268,0.254 -0.27022,0.27022 -0.35406,2.11539 -0.10733,2.36212 0.0807,0.0807 1.48561,0.12036 3.12209,0.0882 2.9754,-0.0585 2.9754,-0.0585 3.03896,-1.27812 z"
         id="path1" /></g></g></svg>
